<?xml version="1.0" standalone="no"?>
<!DOCTYPE svg PUBLIC "-//W3C//DTD SVG 20010904//EN"
 "http://www.w3.org/TR/2001/REC-SVG-20010904/DTD/svg10.dtd">
<svg version="1.0" xmlns="http://www.w3.org/2000/svg"
 width="64.000000pt" height="54.000000pt" viewBox="0 0 64.000000 54.000000"
 preserveAspectRatio="xMidYMid meet">
<metadata>
Created by potrace 1.13, written by Peter Selinger 2001-2015
</metadata>
<g transform="translate(0.000000,54.000000) scale(0.100000,-0.100000)"
fill="#000000" stroke="none">
<path d="M101 514 c-25 -21 -31 -34 -31 -64 0 -46 32 -88 70 -91 47 -4 70 1
70 15 0 7 9 25 20 39 28 35 25 64 -9 98 -37 37 -79 38 -120 3z"/>
<path d="M419 511 c-36 -36 -36 -54 -4 -93 14 -16 25 -35 25 -43 0 -33 81 -24
110 13 32 39 27 95 -11 126 -41 35 -83 34 -120 -3z"/>
<path d="M259 411 c-37 -37 -38 -79 -3 -120 21 -26 33 -31 69 -31 36 0 48 5
70 32 76 90 -53 202 -136 119z"/>
<path d="M52 324 c-36 -25 -52 -68 -52 -137 l0 -64 51 -11 c77 -18 89 -16 89
14 0 49 48 122 90 136 6 2 2 20 -8 40 l-17 37 -65 1 c-44 0 -73 -5 -88 -16z"/>
<path d="M430 308 c-7 -18 -15 -35 -17 -38 -1 -3 11 -13 27 -22 32 -18 69 -86
70 -127 0 -22 3 -23 45 -17 77 10 85 18 85 87 0 107 -38 149 -135 149 -59 0
-61 -1 -75 -32z"/>
<path d="M235 236 c-45 -20 -65 -58 -72 -135 l-6 -69 39 -13 c55 -19 221 -18
258 1 28 14 30 18 29 76 -1 74 -21 116 -67 138 -41 19 -139 21 -181 2z"/>
</g>
</svg>
